<?xml version="1.0" encoding="UTF-8"?>
<svg viewBox="0 0 22 22" xmlns="http://www.w3.org/2000/svg">
 <path d="m3 20" fill="none" stroke="#000" stroke-linecap="round" stroke-width="1.5"/>
 <path d="m12.639 8.4502s1.7678-0.54236 1.6731 4.9188c-0.05886 3.414 1.2784 5.0508 2.6201 5.0823s2.6201-1.1996 2.6516-3.2199-0.91545-1.7046-0.91545-3.7249 0.78918-3.0971-0.59978-5.8084-2.841-3.283-2.841-3.283 3.0936 1.5625 4.1669 3.4724" fill="none" stroke="#fff" stroke-linecap="round" stroke-linejoin="round" stroke-width="2.4"/>
 <path d="m4.69476,2h7.52105a.78419,.93702 0 0,1 .78419.93702v16.09673a.78419,.93702 0 0,1 -.78419.93702h-7.52105a.78419,.93702 0 0,1 -.78419-.93702v-16.09673a.78419,.93702 0 0,1 .78419-.93702" fill="none" stroke="#fff" stroke-linecap="round" stroke-width="2.4"/>
 <path d="m2.9492 19.987h11" fill="none" stroke="#fff" stroke-linecap="round" stroke-width="3"/>
 <g transform="translate(21.395 -17.083)" stroke="#000">
  <path d="m-8.7554 25.563s1.7678-0.54236 1.6731 4.9188c-0.05886 3.414 1.2784 5.0508 2.6201 5.0823s2.6201-1.1996 2.6516-3.2199-0.91545-1.7046-0.91545-3.7249 0.78918-3.0971-0.59978-5.8084-2.841-3.283-2.841-3.283 3.0936 1.5625 4.1669 3.4724" fill="none" stroke-width="1.4"/>
  <path d="m-16.6999,19.11247h7.52105a.78419,.93702 0 0,1 .78419.93702v16.09673a.78419,.93702 0 0,1 -.78419.93702h-7.52105a.78419,.93702 0 0,1 -.78419-.93702v-16.09673a.78419,.93702 0 0,1 .78419-.93702" fill="#9333EA" fill-rule="evenodd" stroke-linecap="round" stroke-width="1.2"/>
  <path d="m-15.45161,20.89698h4.93686a.51474,.52758 0 0,1 .51474.52758v5.04787a.51474,.52758 0 0,1 -.51474.52758h-4.93686a.51474,.52758 0 0,1 -.51474-.52758v-5.04787a.51474,.52758 0 0,1 .51474-.52758" fill="#fff" fill-rule="evenodd" stroke-linecap="round" stroke-width=".4"/>
  <path d="m-18.445 37.099h11" fill="none" stroke-linecap="round" stroke-width="1.8"/>
 </g>
</svg>
